<svg width="600" height="400" viewBox="0 0 600 400" xmlns="http://www.w3.org/2000/svg">
  <!-- Background -->
  <rect width="600" height="400" fill="#0f1419"/>
  
  <!-- Title -->
  <text x="300" y="30" font-family="Arial, sans-serif" font-size="20" font-weight="bold" text-anchor="middle" fill="#fff">
    PyPage Development Workflow
  </text>
  
  <!-- Step 1 -->
  <circle cx="100" cy="80" r="30" fill="#3b82f6" stroke="#1e40af" stroke-width="2"/>
  <text x="100" y="85" font-family="Arial, sans-serif" font-size="14" font-weight="bold" text-anchor="middle" fill="#fff">1</text>
  <text x="100" y="120" font-family="Arial, sans-serif" font-size="12" text-anchor="middle" fill="#cbd5e1">Install PyPage</text>
  <text x="100" y="135" font-family="Arial, sans-serif" font-size="10" text-anchor="middle" fill="#64748b">pip install pypage</text>
  
  <!-- Arrow 1 -->
  <path d="M 130 80 L 170 80" stroke="#60a5fa" stroke-width="2" marker-end="url(#arrowhead)"/>
  
  <!-- Step 2 -->
  <circle cx="200" cy="80" r="30" fill="#10b981" stroke="#059669" stroke-width="2"/>
  <text x="200" y="85" font-family="Arial, sans-serif" font-size="14" font-weight="bold" text-anchor="middle" fill="#fff">2</text>
  <text x="200" y="120" font-family="Arial, sans-serif" font-size="12" text-anchor="middle" fill="#cbd5e1">Create Project</text>
  <text x="200" y="135" font-family="Arial, sans-serif" font-size="10" text-anchor="middle" fill="#64748b">pypage create myapp</text>
  
  <!-- Arrow 2 -->
  <path d="M 230 80 L 270 80" stroke="#60a5fa" stroke-width="2" marker-end="url(#arrowhead)"/>
  
  <!-- Step 3 -->
  <circle cx="300" cy="80" r="30" fill="#f59e0b" stroke="#d97706" stroke-width="2"/>
  <text x="300" y="85" font-family="Arial, sans-serif" font-size="14" font-weight="bold" text-anchor="middle" fill="#fff">3</text>
  <text x="300" y="120" font-family="Arial, sans-serif" font-size="12" text-anchor="middle" fill="#cbd5e1">Write Code</text>
  <text x="300" y="135" font-family="Arial, sans-serif" font-size="10" text-anchor="middle" fill="#64748b">from pypage import *</text>
  
  <!-- Arrow 3 -->
  <path d="M 330 80 L 370 80" stroke="#60a5fa" stroke-width="2" marker-end="url(#arrowhead)"/>
  
  <!-- Step 4 -->
  <circle cx="400" cy="80" r="30" fill="#8b5cf6" stroke="#7c3aed" stroke-width="2"/>
  <text x="400" y="85" font-family="Arial, sans-serif" font-size="14" font-weight="bold" text-anchor="middle" fill="#fff">4</text>
  <text x="400" y="120" font-family="Arial, sans-serif" font-size="12" text-anchor="middle" fill="#cbd5e1">Generate HTML</text>
  <text x="400" y="135" font-family="Arial, sans-serif" font-size="10" text-anchor="middle" fill="#64748b">page.generate_html()</text>
  
  <!-- Arrow 4 -->
  <path d="M 430 80 L 470 80" stroke="#60a5fa" stroke-width="2" marker-end="url(#arrowhead)"/>
  
  <!-- Step 5 -->
  <circle cx="500" cy="80" r="30" fill="#ef4444" stroke="#dc2626" stroke-width="2"/>
  <text x="500" y="85" font-family="Arial, sans-serif" font-size="14" font-weight="bold" text-anchor="middle" fill="#fff">5</text>
  <text x="500" y="120" font-family="Arial, sans-serif" font-size="12" text-anchor="middle" fill="#cbd5e1">Deploy</text>
  <text x="500" y="135" font-family="Arial, sans-serif" font-size="10" text-anchor="middle" fill="#64748b">page.run()</text>
  
  <!-- Features Box -->
  <rect x="50" y="180" width="500" height="180" rx="10" fill="#1e293b" stroke="#475569" stroke-width="1"/>
  <text x="300" y="205" font-family="Arial, sans-serif" font-size="16" font-weight="bold" text-anchor="middle" fill="#e2e8f0">Key Features</text>
  
  <!-- Feature Grid -->
  <g transform="translate(70, 220)">
    <!-- Row 1 -->
    <rect x="0" y="0" width="140" height="40" rx="5" fill="#374151"/>
    <text x="70" y="25" font-family="Arial, sans-serif" font-size="12" text-anchor="middle" fill="#d1d5db">🌙 Dark Mode</text>
    
    <rect x="160" y="0" width="140" height="40" rx="5" fill="#374151"/>
    <text x="230" y="25" font-family="Arial, sans-serif" font-size="12" text-anchor="middle" fill="#d1d5db">📱 Responsive</text>
    
    <rect x="320" y="0" width="140" height="40" rx="5" fill="#374151"/>
    <text x="390" y="25" font-family="Arial, sans-serif" font-size="12" text-anchor="middle" fill="#d1d5db">✨ Animations</text>
    
    <!-- Row 2 -->
    <rect x="0" y="60" width="140" height="40" rx="5" fill="#374151"/>
    <text x="70" y="85" font-family="Arial, sans-serif" font-size="12" text-anchor="middle" fill="#d1d5db">📊 Charts</text>
    
    <rect x="160" y="60" width="140" height="40" rx="5" fill="#374151"/>
    <text x="230" y="85" font-family="Arial, sans-serif" font-size="12" text-anchor="middle" fill="#d1d5db">🔧 Components</text>
    
    <rect x="320" y="60" width="140" height="40" rx="5" fill="#374151"/>
    <text x="390" y="85" font-family="Arial, sans-serif" font-size="12" text-anchor="middle" fill="#d1d5db">🚀 Fast</text>
    
    <!-- Row 3 -->
    <rect x="0" y="120" width="140" height="40" rx="5" fill="#374151"/>
    <text x="70" y="145" font-family="Arial, sans-serif" font-size="12" text-anchor="middle" fill="#d1d5db">📄 PDF Export</text>
    
    <rect x="160" y="120" width="140" height="40" rx="5" fill="#374151"/>
    <text x="230" y="145" font-family="Arial, sans-serif" font-size="12" text-anchor="middle" fill="#d1d5db">🔌 Plugins</text>
    
    <rect x="320" y="120" width="140" height="40" rx="5" fill="#374151"/>
    <text x="390" y="145" font-family="Arial, sans-serif" font-size="12" text-anchor="middle" fill="#d1d5db">🎨 Themes</text>
  </g>
  
  <!-- Arrow marker definition -->
  <defs>
    <marker id="arrowhead" markerWidth="10" markerHeight="7" refX="10" refY="3.5" orient="auto">
      <polygon points="0 0, 10 3.5, 0 7" fill="#60a5fa"/>
    </marker>
  </defs>
</svg>